<?xml version="1.0" encoding="utf-8"?>
<!-- Generator: Adobe Illustrator 27.2.0, SVG Export Plug-In . SVG Version: 6.00 Build 0)  -->
<svg version="1.1" id="Layer_1" xmlns="http://www.w3.org/2000/svg" xmlns:xlink="http://www.w3.org/1999/xlink" x="0px" y="0px"
	 viewBox="0 0 340 90" style="enable-background:new 0 0 340 90;" xml:space="preserve">
<style type="text/css">
	.st0{fill:#22B573;}
	.st1{fill:#F7931E;}
</style>
<path class="st0" d="M62.23,7.98V1c-21.9,1.52-39.38,19.01-40.9,40.9h6.98C29.81,23.86,44.19,9.48,62.23,7.98z"/>
<path class="st0" d="M311.68,41.9h6.98c-1.52-21.9-19.01-39.38-40.9-40.9v6.98C295.81,9.48,310.19,23.86,311.68,41.9z"/>
<path class="st0" d="M28.32,48.1h-6.98c1.52,21.9,19.01,39.38,40.9,40.9v-6.98C44.19,80.52,29.81,66.14,28.32,48.1z"/>
<path class="st0" d="M277.77,82.02V89c21.9-1.52,39.38-19.01,40.9-40.9h-6.98C310.19,66.14,295.81,80.52,277.77,82.02z"/>
<g>
	<path class="st1" d="M272.65,33.97c-2.75,0-5.09,1.01-7.03,3.04c-1.94,2.02-2.9,4.47-2.9,7.33c0,2.86,0.97,5.3,2.92,7.33
		c1.95,2.02,4.29,3.04,7.01,3.04c2.77,0,5.12-1.01,7.05-3.02c1.93-2.01,2.89-4.46,2.89-7.34c0-2.88-0.96-5.33-2.89-7.34
		C277.77,34.98,275.42,33.97,272.65,33.97z"/>
	<path class="st1" d="M275.5,14.08H63.55c-15.84,0-28.68,12.84-28.68,28.68v4.79c0,15.84,12.84,28.68,28.68,28.68H275.5
		c15.84,0,28.68-12.84,28.68-28.68v-4.79C304.18,26.92,291.34,14.08,275.5,14.08z M85.4,58.89c-2.95,4.01-7.06,6.74-12.34,8.22v3.93
		H60.31v-3.93c-5.24-1.45-9.42-4.26-12.56-8.42s-4.7-8.98-4.7-14.46c0-7.24,2.73-13.17,8.19-17.79c4.53-3.83,9.69-5.74,15.48-5.74
		c7.46,0,13.48,2.7,18.06,8.09c3.7,4.36,5.55,9.39,5.55,15.08C90.32,49.46,88.68,54.47,85.4,58.89z M128.31,51.03
		c0,5.15-1.53,9.26-4.6,12.34c-3.07,3.08-7.16,4.62-12.26,4.62c-5.08,0-8.97-1.5-11.67-4.49c-2.7-2.99-4.04-7.29-4.04-12.91V21.82
		h13.4v28.75c0,2.75,0.98,4.13,2.94,4.13c1.89,0,2.84-1.37,2.84-4.13V21.82h13.4V51.03z M168.34,66.88h-13.4V38.66
		c0-1.76-0.21-2.98-0.63-3.66c-0.42-0.68-1.17-1.02-2.24-1.02c-2.09,0-3.14,1.56-3.14,4.69v5.61h3.86v11.88h-3.86v10.73h-13.4V38.23
		c0-5.55,1.51-9.85,4.54-12.92c3.03-3.07,7.28-4.6,12.76-4.6c5.28,0,9.19,1.39,11.72,4.18c2.53,2.78,3.8,7.08,3.8,12.89V66.88z
		 M206.3,34.76h-10.23v32.12h-13.4V34.76H172.4V21.82h33.9V34.76z M233.14,66.88l-6.5-14.52V40.77h1.06c2.82,0,4.22-1.21,4.22-3.63
		c0-2.13-1.63-3.2-4.89-3.2h-2.38v32.94h-13.4V21.82h17.2c5.24,0,9.3,1.3,12.18,3.89c3.21,2.9,4.82,6.59,4.82,11.06
		c0,4.56-1.99,8.4-5.97,11.52l7.72,18.58H233.14z M289.42,61.1c-5.33,5.33-11.99,7.57-19.98,6.72c-4.01-0.42-7.84-1.99-10.99-4.5
		c-6.31-5.02-9.46-11.35-9.46-18.99c0-6.6,2.33-12.19,6.98-16.77c4.65-4.58,10.35-6.87,17.08-6.87c6.38,0,11.85,2.32,16.42,6.96
		c4.57,4.64,6.85,10.2,6.85,16.67C296.31,50.91,294.01,56.5,289.42,61.1z"/>
	<path class="st1" d="M66.72,33.97c-2.68,0-5.01,1.02-6.96,3.07c-1.96,2.05-2.94,4.47-2.94,7.26c0,3.56,1.32,6.44,3.96,8.61v-5.05
		h11.85v5.05c2.64-2.27,3.96-5.14,3.96-8.61c0-2.79-0.98-5.22-2.94-7.26C71.69,34.99,69.38,33.97,66.72,33.97z"/>
</g>
</svg>
