<?xml version="1.0" encoding="utf-8"?>
<!-- Generator: Adobe Illustrator 27.2.0, SVG Export Plug-In . SVG Version: 6.00 Build 0)  -->
<svg version="1.1" id="Layer_1" xmlns="http://www.w3.org/2000/svg" xmlns:xlink="http://www.w3.org/1999/xlink" x="0px" y="0px"
	 viewBox="0 0 56.8 56.8" style="enable-background:new 0 0 56.8 56.8;" xml:space="preserve">
<style type="text/css">
	.st0{fill:#22B573;}
	.st1{fill:#F7931E;}
</style>
<path class="st0" d="M26.4,4.5V0C12.3,1,1,12.3,0,26.4h4.5C5.5,14.8,14.8,5.5,26.4,4.5z"/>
<path class="st0" d="M52.3,26.4h4.5C55.9,12.3,44.6,1,30.4,0v4.5C42.1,5.5,51.4,14.8,52.3,26.4z"/>
<path class="st0" d="M4.5,30.4H0c1,14.1,12.3,25.4,26.4,26.4v-4.5C14.8,51.4,5.5,42.1,4.5,30.4z"/>
<path class="st0" d="M30.4,52.3v4.5c14.1-1,25.4-12.3,26.4-26.4h-4.5C51.4,42.1,42.1,51.4,30.4,52.3z"/>
<g>
	<path class="st1" d="M28.4,8.2c-11.2,0-20.2,9.1-20.2,20.2s9.1,20.2,20.2,20.2s20.2-9.1,20.2-20.2S39.6,8.2,28.4,8.2z M40,38
		c-1.8,2.5-4.4,4.2-7.7,5.1v2.4h-7.9v-2.4c-3.2-0.9-5.9-2.6-7.8-5.2c-1.9-2.6-2.9-5.6-2.9-9c0-4.5,1.7-8.2,5.1-11
		c2.8-2.4,6-3.6,9.6-3.6c4.6,0,8.4,1.7,11.2,5c2.3,2.7,3.4,5.8,3.4,9.4C43.1,32.1,42.1,35.2,40,38z"/>
	<path class="st1" d="M28.4,22.5c-1.7,0-3.1,0.6-4.3,1.9s-1.8,2.8-1.8,4.5c0,2.2,0.8,4,2.5,5.4v-3.1h7.4v3.1
		c1.6-1.4,2.5-3.2,2.5-5.4c0-1.7-0.6-3.2-1.8-4.5C31.5,23.1,30.1,22.5,28.4,22.5z"/>
</g>
</svg>
